# Blender 5.0.0
# www.blender.org
mtllib cubetest.001.mtl
o cubetest
v -0.500000 0.000000 0.500000
v -0.500000 1.000000 0.500000
v -0.500000 0.000000 -0.500000
v -0.500000 1.000000 -0.500000
v 0.500000 0.000000 0.500000
v 0.500000 1.000000 0.500000
v 0.500000 0.000000 -0.500000
v 0.500000 1.000000 -0.500000
vn -1.0000 -0.0000 -0.0000
vn -0.0000 -0.0000 -1.0000
vn 1.0000 -0.0000 -0.0000
vn -0.0000 -0.0000 1.0000
vn -0.0000 -1.0000 -0.0000
vn -0.0000 1.0000 -0.0000
vt 0.329148 0.671783
vt 0.655227 0.671783
vt 0.655227 0.997862
vt 0.329148 0.997862
vt 0.003068 0.671783
vt 0.329148 0.671783
vt 0.329148 0.997862
vt 0.003068 0.997862
vt 0.329148 0.345703
vt 0.655227 0.345703
vt 0.981307 0.671783
vt 0.981307 0.997862
vt 0.655227 0.997862
vt 0.003068 0.345703
vt 0.003068 0.671783
vt 0.981307 0.345703
vt 0.981307 0.671783
s 0
usemtl Material
f 1/1/1 2/2/1 4/3/1 3/4/1
f 3/5/2 4/6/2 8/7/2 7/8/2
f 7/9/3 8/10/3 6/2/3 5/1/3
f 5/2/4 6/11/4 2/12/4 1/13/4
f 3/14/5 7/9/5 5/1/5 1/15/5
f 8/10/6 4/16/6 2/17/6 6/2/6
